<svg width="20" height="20" viewBox="0 0 20 20" fill="none" xmlns="http://www.w3.org/2000/svg">
<path fill-rule="evenodd" clip-rule="evenodd" d="M8.06185 0C5.53195 0 3.28989 1.83907 3.28989 4.33092C3.28989 6.82277 5.53195 8.66183 8.06185 8.66183C10.5918 8.66183 12.8338 6.82277 12.8338 4.33092C12.8338 1.83907 10.5918 0 8.06185 0ZM4.9263 4.33092C4.9263 2.95198 6.22581 1.65518 8.06185 1.65518C9.8979 1.65518 11.1974 2.95198 11.1974 4.33092C11.1974 5.70986 9.8979 7.00666 8.06185 7.00666C6.22581 7.00666 4.9263 5.70986 4.9263 4.33092ZM17.205 0.247133C16.7531 0.247133 16.3868 0.613467 16.3868 1.06534V2.22399H15.228C14.7761 2.22399 14.4098 2.59031 14.4098 3.04219C14.4098 3.49408 14.7761 3.8604 15.228 3.8604H16.3868V5.0191C16.3868 5.47098 16.7531 5.8373 17.205 5.8373C17.6569 5.8373 18.0232 5.47098 18.0232 5.0191V3.8604H19.1818C19.6337 3.8604 20 3.49408 20 3.04219C20 2.59031 19.6337 2.22399 19.1818 2.22399H18.0232V1.06534C18.0232 0.613467 17.6569 0.247133 17.205 0.247133ZM13.1597 11.1529C10.0303 9.19143 6.09335 9.19143 2.96404 11.1529C1.12183 12.3076 7.03796e-06 14.361 7.03796e-06 16.572V17.0834C-5.18509e-05 17.2802 -9.74257e-05 17.4432 0.0156959 17.5909C0.150107 18.848 1.11885 19.8452 2.35142 19.9838C2.49605 20.0001 2.6555 20 2.84691 20H13.2768C13.4682 20 13.6277 20.0001 13.7723 19.9838C15.0049 19.8452 15.9737 18.848 16.108 17.5909C16.1239 17.4432 16.1238 17.2802 16.1238 17.0834V16.572C16.1238 14.361 15.0019 12.3076 13.1597 11.1529ZM3.83486 12.6008C6.42996 10.9742 9.69377 10.9742 12.2889 12.6008C13.6361 13.4452 14.4594 14.9492 14.4594 16.572V17.0388C14.4594 17.3012 14.4582 17.3634 14.4536 17.4066C14.4032 17.8771 14.042 18.2441 13.59 18.295C13.5488 18.2997 13.489 18.3009 13.2328 18.3009H2.89094C2.63473 18.3009 2.57491 18.2997 2.5337 18.295C2.08176 18.2441 1.72046 17.8771 1.67015 17.4066C1.66554 17.3634 1.6643 17.3012 1.6643 17.0388V16.572C1.6643 14.9492 2.48767 13.4452 3.83486 12.6008Z" fill="white"/>
</svg>
