<svg width="30" height="30" viewBox="0 0 30 30" fill="none" xmlns="http://www.w3.org/2000/svg">
<path fill-rule="evenodd" clip-rule="evenodd" d="M14.364 27.5158H15.636C18.5077 27.5158 20.48 27.513 21.9967 27.365C23.474 27.2208 24.2497 26.9578 24.8065 26.6045C25.5207 26.1513 26.1268 25.549 26.5828 24.8393C26.9385 24.286 27.203 23.5152 27.3482 22.0472C27.4972 20.5402 27.5 18.5803 27.5 15.7268C27.5 12.2829 27.4605 11.2152 27.1108 10.3123C26.9147 9.80565 26.6478 9.3289 26.3182 8.89604C25.7307 8.12455 24.8387 7.52807 21.8942 5.71139L21.5938 5.52599C19.8535 4.45229 18.6758 3.72802 17.703 3.23379C16.768 2.75875 16.1748 2.57849 15.647 2.51995C15.217 2.47227 14.783 2.47227 14.3531 2.51995C13.8252 2.57849 13.232 2.75875 12.297 3.23379C11.3241 3.72802 10.1464 4.45229 8.40623 5.52599L8.10575 5.71139C5.16132 7.52807 4.26937 8.12455 3.68182 8.89604C3.35215 9.3289 3.08532 9.80565 2.88913 10.3123C2.53948 11.2152 2.5 12.2829 2.5 15.7268C2.5 18.5803 2.50282 20.5402 2.6518 22.0472C2.79693 23.5152 3.06147 24.286 3.41715 24.8393C3.87322 25.549 4.47937 26.1513 5.19343 26.6045C5.75035 26.9578 6.52605 27.2208 8.00338 27.365C9.52003 27.513 11.4923 27.5158 14.364 27.5158ZM0.5559 9.42017C-4.96705e-08 10.8557 0 12.4794 0 15.7268C0 21.3343 -9.93411e-08 24.1382 1.31022 26.1765C1.96175 27.1902 2.82767 28.0507 3.84777 28.698C5.89918 30 8.72082 30 14.364 30H15.636C21.2792 30 24.1008 30 26.1522 28.698C27.1723 28.0507 28.0383 27.1902 28.6898 26.1765C30 24.1382 30 21.3343 30 15.7268C30 12.4794 30 10.8557 29.4442 9.42017C29.1638 8.6964 28.7827 8.01534 28.3117 7.39695C27.3775 6.17042 25.9893 5.31392 23.213 3.60092L22.9125 3.41554C19.5015 1.31092 17.7958 0.25862 15.9242 0.0510812C15.31 -0.0170271 14.69 -0.0170271 14.0758 0.0510812C12.2041 0.25862 10.4986 1.31092 7.08748 3.41554L6.787 3.60092C4.01062 5.31392 2.62242 6.17042 1.68832 7.39695C1.21737 8.01534 0.836167 8.6964 0.5559 9.42017ZM8.75 21.8577C8.75 21.1672 9.30965 20.6077 10 20.6077H20C20.6903 20.6077 21.25 21.1672 21.25 21.8577C21.25 22.548 20.6903 23.1077 20 23.1077H10C9.30965 23.1077 8.75 22.548 8.75 21.8577Z" fill="#201F29"/>
</svg>
